<mxfile host="app.diagrams.net" modified="2024-03-15T17:49:29.004Z" agent="Mozilla/5.0 (Macintosh; Intel Mac OS X 10_15_7) AppleWebKit/537.36 (KHTML, like Gecko) Chrome/122.0.0.0 Safari/537.36" etag="1k8aLu44RK_IcH1iEZuz" version="24.0.6" type="device">
  <diagram name="Page-1" id="mjidv6IV28y7xDuCjua5">
    <mxGraphModel dx="954" dy="727" grid="1" gridSize="10" guides="1" tooltips="1" connect="1" arrows="1" fold="1" page="1" pageScale="1" pageWidth="850" pageHeight="1100" math="0" shadow="0">
      <root>
        <mxCell id="0" />
        <mxCell id="1" parent="0" />
        <mxCell id="ksIQ4xo3c53N_aCZU0jJ-10" style="edgeStyle=orthogonalEdgeStyle;rounded=0;orthogonalLoop=1;jettySize=auto;html=1;entryX=0.5;entryY=0;entryDx=0;entryDy=0;strokeColor=#F2F2F2;" parent="1" source="ksIQ4xo3c53N_aCZU0jJ-1" target="ksIQ4xo3c53N_aCZU0jJ-6" edge="1">
          <mxGeometry relative="1" as="geometry" />
        </mxCell>
        <mxCell id="ksIQ4xo3c53N_aCZU0jJ-11" style="edgeStyle=orthogonalEdgeStyle;rounded=0;orthogonalLoop=1;jettySize=auto;html=1;exitX=0.5;exitY=1;exitDx=0;exitDy=0;strokeColor=#F2F2F2;" parent="1" source="ksIQ4xo3c53N_aCZU0jJ-1" target="ksIQ4xo3c53N_aCZU0jJ-9" edge="1">
          <mxGeometry relative="1" as="geometry" />
        </mxCell>
        <mxCell id="ksIQ4xo3c53N_aCZU0jJ-12" style="edgeStyle=orthogonalEdgeStyle;rounded=0;orthogonalLoop=1;jettySize=auto;html=1;entryX=0.5;entryY=0;entryDx=0;entryDy=0;strokeColor=#F2F2F2;" parent="1" source="ksIQ4xo3c53N_aCZU0jJ-1" target="ksIQ4xo3c53N_aCZU0jJ-7" edge="1">
          <mxGeometry relative="1" as="geometry" />
        </mxCell>
        <mxCell id="ksIQ4xo3c53N_aCZU0jJ-13" style="edgeStyle=orthogonalEdgeStyle;rounded=0;orthogonalLoop=1;jettySize=auto;html=1;strokeColor=#F2F2F2;" parent="1" source="ksIQ4xo3c53N_aCZU0jJ-1" target="ksIQ4xo3c53N_aCZU0jJ-8" edge="1">
          <mxGeometry relative="1" as="geometry">
            <Array as="points">
              <mxPoint x="310" y="200" />
              <mxPoint x="80" y="200" />
            </Array>
          </mxGeometry>
        </mxCell>
        <mxCell id="ksIQ4xo3c53N_aCZU0jJ-16" style="edgeStyle=orthogonalEdgeStyle;rounded=0;orthogonalLoop=1;jettySize=auto;html=1;entryX=0.5;entryY=0;entryDx=0;entryDy=0;strokeColor=#F2F2F2;" parent="1" source="ksIQ4xo3c53N_aCZU0jJ-1" target="ksIQ4xo3c53N_aCZU0jJ-15" edge="1">
          <mxGeometry relative="1" as="geometry">
            <Array as="points">
              <mxPoint x="310" y="200" />
              <mxPoint x="640" y="200" />
            </Array>
          </mxGeometry>
        </mxCell>
        <mxCell id="ksIQ4xo3c53N_aCZU0jJ-1" value="Home" style="rounded=0;whiteSpace=wrap;html=1;" parent="1" vertex="1">
          <mxGeometry x="250" y="120" width="120" height="60" as="geometry" />
        </mxCell>
        <mxCell id="ksIQ4xo3c53N_aCZU0jJ-6" value="Search" style="whiteSpace=wrap;html=1;" parent="1" vertex="1">
          <mxGeometry x="190" y="220" width="120" height="60" as="geometry" />
        </mxCell>
        <mxCell id="ksIQ4xo3c53N_aCZU0jJ-7" value="News" style="whiteSpace=wrap;html=1;" parent="1" vertex="1">
          <mxGeometry x="320" y="220" width="120" height="60" as="geometry" />
        </mxCell>
        <mxCell id="ksIQ4xo3c53N_aCZU0jJ-8" value="Genres" style="whiteSpace=wrap;html=1;" parent="1" vertex="1">
          <mxGeometry x="20" y="220" width="120" height="60" as="geometry" />
        </mxCell>
        <mxCell id="ksIQ4xo3c53N_aCZU0jJ-9" value="About/Contact" style="whiteSpace=wrap;html=1;" parent="1" vertex="1">
          <mxGeometry x="450" y="220" width="120" height="60" as="geometry" />
        </mxCell>
        <mxCell id="ksIQ4xo3c53N_aCZU0jJ-14" style="edgeStyle=orthogonalEdgeStyle;rounded=0;orthogonalLoop=1;jettySize=auto;html=1;entryX=-0.028;entryY=0.506;entryDx=0;entryDy=0;entryPerimeter=0;strokeColor=#F2F2F2;" parent="1" source="ksIQ4xo3c53N_aCZU0jJ-8" target="ksIQ4xo3c53N_aCZU0jJ-6" edge="1">
          <mxGeometry relative="1" as="geometry" />
        </mxCell>
        <mxCell id="ksIQ4xo3c53N_aCZU0jJ-30" style="edgeStyle=orthogonalEdgeStyle;rounded=0;orthogonalLoop=1;jettySize=auto;html=1;entryX=0.5;entryY=0;entryDx=0;entryDy=0;strokeColor=#F2F2F2;" parent="1" source="ksIQ4xo3c53N_aCZU0jJ-15" target="ksIQ4xo3c53N_aCZU0jJ-27" edge="1">
          <mxGeometry relative="1" as="geometry" />
        </mxCell>
        <mxCell id="ksIQ4xo3c53N_aCZU0jJ-15" value="Login" style="whiteSpace=wrap;html=1;" parent="1" vertex="1">
          <mxGeometry x="580" y="220" width="120" height="60" as="geometry" />
        </mxCell>
        <mxCell id="ksIQ4xo3c53N_aCZU0jJ-27" value="User Profile" style="whiteSpace=wrap;html=1;" parent="1" vertex="1">
          <mxGeometry x="580" y="350" width="120" height="60" as="geometry" />
        </mxCell>
      </root>
    </mxGraphModel>
  </diagram>
</mxfile>
